<mxfile host="app.diagrams.net" modified="2020-12-25T14:30:36.044Z" agent="5.0 (Windows NT 10.0; Win64; x64) AppleWebKit/537.36 (KHTML, like Gecko) Chrome/87.0.4280.88 Safari/537.36" etag="Xh8sHiwbyqy5DycEHB7P" version="14.1.2" type="github">
  <diagram id="C5RBs43oDa-KdzZeNtuy" name="Page-1">
    <mxGraphModel dx="1422" dy="772" grid="1" gridSize="10" guides="1" tooltips="1" connect="1" arrows="1" fold="1" page="1" pageScale="1" pageWidth="827" pageHeight="1169" math="0" shadow="0">
      <root>
        <mxCell id="WIyWlLk6GJQsqaUBKTNV-0" />
        <mxCell id="WIyWlLk6GJQsqaUBKTNV-1" parent="WIyWlLk6GJQsqaUBKTNV-0" />
        <mxCell id="E72dZTKriqrOK8_UnTGn-2" value="" style="edgeStyle=orthogonalEdgeStyle;rounded=0;orthogonalLoop=1;jettySize=auto;html=1;strokeWidth=1;fontSize=16;fontStyle=1;fillColor=#d5e8d4;strokeColor=#82b366;" parent="WIyWlLk6GJQsqaUBKTNV-1" source="E72dZTKriqrOK8_UnTGn-0" target="E72dZTKriqrOK8_UnTGn-1" edge="1">
          <mxGeometry relative="1" as="geometry" />
        </mxCell>
        <mxCell id="E72dZTKriqrOK8_UnTGn-0" value="二进制代码" style="rounded=1;whiteSpace=wrap;html=1;strokeWidth=1;fontSize=16;fontStyle=1;fillColor=#d5e8d4;strokeColor=#82b366;" parent="WIyWlLk6GJQsqaUBKTNV-1" vertex="1">
          <mxGeometry x="160" y="160" width="120" height="60" as="geometry" />
        </mxCell>
        <mxCell id="E72dZTKriqrOK8_UnTGn-4" value="" style="edgeStyle=orthogonalEdgeStyle;rounded=0;orthogonalLoop=1;jettySize=auto;html=1;strokeWidth=1;fontSize=16;fontStyle=1;fillColor=#d5e8d4;strokeColor=#82b366;" parent="WIyWlLk6GJQsqaUBKTNV-1" source="E72dZTKriqrOK8_UnTGn-1" target="E72dZTKriqrOK8_UnTGn-3" edge="1">
          <mxGeometry relative="1" as="geometry" />
        </mxCell>
        <mxCell id="E72dZTKriqrOK8_UnTGn-1" value="集器指令集" style="whiteSpace=wrap;html=1;rounded=1;strokeWidth=1;fontSize=16;fontStyle=1;fillColor=#d5e8d4;strokeColor=#82b366;" parent="WIyWlLk6GJQsqaUBKTNV-1" vertex="1">
          <mxGeometry x="160" y="300" width="120" height="60" as="geometry" />
        </mxCell>
        <mxCell id="E72dZTKriqrOK8_UnTGn-6" value="" style="edgeStyle=orthogonalEdgeStyle;rounded=0;orthogonalLoop=1;jettySize=auto;html=1;strokeWidth=1;fontSize=16;fontStyle=1;fillColor=#d5e8d4;strokeColor=#82b366;" parent="WIyWlLk6GJQsqaUBKTNV-1" source="E72dZTKriqrOK8_UnTGn-3" target="E72dZTKriqrOK8_UnTGn-5" edge="1">
          <mxGeometry relative="1" as="geometry" />
        </mxCell>
        <mxCell id="E72dZTKriqrOK8_UnTGn-3" value="集器语言" style="whiteSpace=wrap;html=1;rounded=1;strokeWidth=1;fontSize=16;fontStyle=1;fillColor=#d5e8d4;strokeColor=#82b366;" parent="WIyWlLk6GJQsqaUBKTNV-1" vertex="1">
          <mxGeometry x="160" y="440" width="120" height="60" as="geometry" />
        </mxCell>
        <mxCell id="E72dZTKriqrOK8_UnTGn-8" value="" style="edgeStyle=orthogonalEdgeStyle;rounded=0;orthogonalLoop=1;jettySize=auto;html=1;strokeWidth=1;fontSize=16;fontStyle=1;fillColor=#d5e8d4;strokeColor=#82b366;" parent="WIyWlLk6GJQsqaUBKTNV-1" source="E72dZTKriqrOK8_UnTGn-5" target="E72dZTKriqrOK8_UnTGn-7" edge="1">
          <mxGeometry relative="1" as="geometry" />
        </mxCell>
        <mxCell id="E72dZTKriqrOK8_UnTGn-5" value="汇编语言" style="whiteSpace=wrap;html=1;rounded=1;strokeWidth=1;fontSize=16;fontStyle=1;fillColor=#d5e8d4;strokeColor=#82b366;" parent="WIyWlLk6GJQsqaUBKTNV-1" vertex="1">
          <mxGeometry x="160" y="580" width="120" height="60" as="geometry" />
        </mxCell>
        <mxCell id="E72dZTKriqrOK8_UnTGn-10" value="" style="edgeStyle=orthogonalEdgeStyle;rounded=0;orthogonalLoop=1;jettySize=auto;html=1;strokeWidth=1;fontSize=16;fontStyle=1" parent="WIyWlLk6GJQsqaUBKTNV-1" source="E72dZTKriqrOK8_UnTGn-7" target="E72dZTKriqrOK8_UnTGn-9" edge="1">
          <mxGeometry relative="1" as="geometry" />
        </mxCell>
        <mxCell id="E72dZTKriqrOK8_UnTGn-7" value="C语言" style="whiteSpace=wrap;html=1;rounded=1;strokeWidth=1;fontSize=16;fontStyle=1;fillColor=#d5e8d4;strokeColor=#82b366;" parent="WIyWlLk6GJQsqaUBKTNV-1" vertex="1">
          <mxGeometry x="160" y="720" width="120" height="60" as="geometry" />
        </mxCell>
        <mxCell id="E72dZTKriqrOK8_UnTGn-12" value="" style="edgeStyle=orthogonalEdgeStyle;rounded=0;orthogonalLoop=1;jettySize=auto;html=1;strokeWidth=1;fontSize=16;fontStyle=1;fillColor=#d5e8d4;strokeColor=#82b366;" parent="WIyWlLk6GJQsqaUBKTNV-1" source="E72dZTKriqrOK8_UnTGn-9" target="E72dZTKriqrOK8_UnTGn-11" edge="1">
          <mxGeometry relative="1" as="geometry" />
        </mxCell>
        <mxCell id="E72dZTKriqrOK8_UnTGn-9" value="C++" style="whiteSpace=wrap;html=1;rounded=1;strokeWidth=1;fontSize=16;fontStyle=1;fillColor=#d5e8d4;strokeColor=#82b366;" parent="WIyWlLk6GJQsqaUBKTNV-1" vertex="1">
          <mxGeometry x="160" y="860" width="120" height="60" as="geometry" />
        </mxCell>
        <mxCell id="E72dZTKriqrOK8_UnTGn-11" value="Java" style="whiteSpace=wrap;html=1;rounded=1;strokeWidth=1;fontSize=16;fontStyle=1;fillColor=#d5e8d4;strokeColor=#82b366;" parent="WIyWlLk6GJQsqaUBKTNV-1" vertex="1">
          <mxGeometry x="360" y="860" width="120" height="60" as="geometry" />
        </mxCell>
        <mxCell id="axeLy-zkUyPGwX7zCTFV-0" value="" style="shape=note;whiteSpace=wrap;html=1;backgroundOutline=1;darkOpacity=0.05;fillColor=#fff2cc;strokeColor=#d6b656;" vertex="1" parent="WIyWlLk6GJQsqaUBKTNV-1">
          <mxGeometry x="340" y="120" width="190" height="140" as="geometry" />
        </mxCell>
        <mxCell id="axeLy-zkUyPGwX7zCTFV-6" value="" style="endArrow=none;dashed=1;html=1;entryX=1;entryY=0.5;entryDx=0;entryDy=0;" edge="1" parent="WIyWlLk6GJQsqaUBKTNV-1" source="axeLy-zkUyPGwX7zCTFV-0" target="E72dZTKriqrOK8_UnTGn-0">
          <mxGeometry width="50" height="50" relative="1" as="geometry">
            <mxPoint x="269.28932188134524" y="240" as="sourcePoint" />
            <mxPoint x="269.28932188134524" y="190" as="targetPoint" />
          </mxGeometry>
        </mxCell>
      </root>
    </mxGraphModel>
  </diagram>
</mxfile>
